<svg width="12" height="12" viewBox="0 0 12 12" fill="none" xmlns="http://www.w3.org/2000/svg">
<path d="M8.22422 6.42415C8.45882 6.18955 8.45882 5.81035 8.22422 5.57575C8.10722 5.45875 7.95362 5.39995 7.80002 5.39995C7.64642 5.39995 7.49282 5.45875 7.37582 5.57575L6.60002 6.35155V1.79995C6.60002 1.46875 6.33182 1.19995 6.00002 1.19995C5.66822 1.19995 5.40002 1.46875 5.40002 1.79995V6.35155L4.62422 5.57575C4.38962 5.34115 4.01042 5.34115 3.77582 5.57575C3.54122 5.81035 3.54122 6.18955 3.77582 6.42415L5.57582 8.22415C5.81042 8.45875 6.18962 8.45875 6.42422 8.22415L8.22422 6.42415Z" fill="#5C5F62"/>
<path d="M1.80001 9.6001C1.46864 9.6001 1.20001 9.86873 1.20001 10.2001C1.20001 10.5315 1.46864 10.8001 1.80001 10.8001H10.2C10.5314 10.8001 10.8 10.5315 10.8 10.2001C10.8 9.86873 10.5314 9.6001 10.2 9.6001H1.80001Z" fill="#5C5F62"/>
</svg>
