<svg width="10" height="12" viewBox="0 0 10 12" fill="none" xmlns="http://www.w3.org/2000/svg">
<path d="M6.52311 9.07692V9.46154C6.52311 9.86956 6.36102 10.2609 6.0725 10.5494C5.78398 10.8379 5.39267 11 4.98464 11C4.57662 11 4.1853 10.8379 3.89679 10.5494C3.60827 10.2609 3.44618 9.86956 3.44618 9.46154V9.07692M9.11157 8.29399C8.49426 7.53846 8.05844 7.15385 8.05844 5.07091C8.05844 3.16346 7.0844 2.48389 6.28272 2.15385C6.17623 2.1101 6.07599 2.00962 6.04354 1.90024C5.90291 1.42163 5.50868 1 4.98464 1C4.46061 1 4.06613 1.42188 3.92695 1.90072C3.8945 2.0113 3.79426 2.1101 3.68777 2.15385C2.88512 2.48438 1.91205 3.16154 1.91205 5.07091C1.91085 7.15385 1.47503 7.53846 0.857721 8.29399C0.601952 8.60697 0.82599 9.07692 1.27335 9.07692H8.69835C9.1433 9.07692 9.36589 8.60553 9.11157 8.29399Z" stroke="#6D7175" stroke-linecap="round" stroke-linejoin="round"/>
</svg>
