<svg width="10" height="10" viewBox="0 0 10 10" fill="none" xmlns="http://www.w3.org/2000/svg">
<path d="M7.62973 0.055886C7.5336 0.0106405 7.42652 -0.00768687 7.32038 0.0029362C7.21424 0.0135593 7.11318 0.0527176 7.02841 0.116069L3.77557 2.59284H1.69697C1.4462 2.59406 1.20606 2.692 1.02874 2.86537C0.851414 3.03875 0.751245 3.27355 0.75 3.51873V6.4816C0.751245 6.72679 0.851414 6.96159 1.02874 7.13496C1.20606 7.30834 1.4462 7.40628 1.69697 7.40749H3.77557L7.02841 9.88426C7.12987 9.95787 7.25246 9.99837 7.37879 10C7.46561 9.99985 7.55132 9.98088 7.62973 9.94445C7.72518 9.8985 7.80552 9.82728 7.86161 9.73889C7.91769 9.6505 7.94727 9.54848 7.94697 9.44446V0.555869C7.94727 0.451849 7.91769 0.349836 7.86161 0.261443C7.80552 0.17305 7.72518 0.101828 7.62973 0.055886ZM6.81061 8.31024L4.32008 6.41216C4.21941 6.33708 4.09631 6.29641 3.9697 6.29642H1.88636V3.70391H3.9697C4.09631 3.70392 4.21941 3.66326 4.32008 3.58818L6.81061 1.69009V8.31024ZM9.84091 3.88909V6.11124C9.84091 6.25858 9.78105 6.39988 9.67449 6.50406C9.56794 6.60825 9.42342 6.66678 9.27273 6.66678C9.12204 6.66678 8.97752 6.60825 8.87096 6.50406C8.76441 6.39988 8.70455 6.25858 8.70455 6.11124V3.88909C8.70455 3.74175 8.76441 3.60045 8.87096 3.49627C8.97752 3.39208 9.12204 3.33355 9.27273 3.33355C9.42342 3.33355 9.56794 3.39208 9.67449 3.49627C9.78105 3.60045 9.84091 3.74175 9.84091 3.88909Z" fill="#6D7175"/>
</svg>
