
  <svg
    width="9"
    height="11"
    viewBox="0 0 9 11"
    fill="none"
    xmlns="http://www.w3.org/2000/svg"
  >
    <path
      d="M5.24952 3.06602L5.25577 3.06653C5.85417 3.16522 6.40324 3.4035 6.83452 3.75167C7.26673 4.09949 7.56288 4.54159 7.68639 5.02337C7.77068 5.35802 7.77047 5.70291 7.68577 6.0375C7.56316 6.5194 7.26686 6.96153 6.83389 7.30869L7.71764 8.02C8.32257 7.53281 8.73711 6.91377 8.91014 6.23922C9.02997 5.77145 9.02997 5.28892 8.91014 4.82114C8.73917 4.14625 8.32456 3.52696 7.71827 3.04087C7.32019 2.71934 6.84833 2.46307 6.32889 2.28631C6.06409 2.19608 5.78877 2.12732 5.50702 2.08107C5.42139 2.06698 5.33514 2.05943 5.24952 2.04937V0.5L2.74952 2.51217L5.24952 4.52435V3.06602ZM0.593266 6.90072C0.702016 7.10798 0.838265 7.3092 0.997015 7.49935C1.15264 7.68547 1.33264 7.86053 1.53077 8.01949C1.92963 8.34062 2.40155 8.59697 2.92077 8.77456C3.18639 8.86511 3.46327 8.93403 3.74264 8.9798C3.84702 8.99691 3.95389 9.00797 4.06014 9.01904V10.5L6.56014 8.48783L4.06014 6.47565V7.99987C4.03827 7.99686 4.01514 7.99837 3.99327 7.99434C3.39486 7.89565 2.84579 7.65736 2.41452 7.3092C2.12393 7.07581 1.89341 6.79857 1.73614 6.49337C1.57887 6.18817 1.49794 5.86099 1.498 5.53058C1.49806 5.20017 1.5791 4.87301 1.73647 4.56785C1.89385 4.26268 2.12448 3.9855 2.41514 3.75218L1.53139 3.04037C1.13232 3.36124 0.813996 3.74112 0.59389 4.15914C0.365876 4.59299 0.248756 5.05936 0.249515 5.53043C0.249117 6.0011 0.366005 6.46705 0.593266 6.90072Z"
      fill="#6D7175"
    />
  </svg>

