<svg width="11" height="11" viewBox="0 0 11 11" fill="none" xmlns="http://www.w3.org/2000/svg">
<path d="M10.1524 2.34353L8.32333 0.505143C8.20246 0.38489 8.0389 0.317383 7.8684 0.317383C7.69791 0.317383 7.53435 0.38489 7.41348 0.505143L0.929286 6.97999L0.337264 9.53503C0.316841 9.62843 0.317541 9.72522 0.339313 9.81831C0.361085 9.91141 0.403378 9.99846 0.463104 10.0731C0.522829 10.1478 0.598478 10.2081 0.684524 10.2498C0.77057 10.2915 0.864839 10.3134 0.960445 10.314C1.00499 10.3185 1.04988 10.3185 1.09443 10.314L3.67751 9.72199L10.1524 3.25337C10.2726 3.13251 10.3401 2.96894 10.3401 2.79845C10.3401 2.62795 10.2726 2.46439 10.1524 2.34353ZM3.36592 9.16112L0.944865 9.66902L1.49638 7.2947L6.34784 2.46193L8.21738 4.33147L3.36592 9.16112ZM8.63492 3.87967L6.76537 2.01012L7.84971 0.932022L9.68809 2.80156L8.63492 3.87967Z" fill="white"/>
</svg>
