<svg width="8" height="8" viewBox="0 0 8 8" fill="none" xmlns="http://www.w3.org/2000/svg">
<path d="M4.70692 3.99968L7.85343 0.85318C7.94718 0.759426 7.99985 0.632269 7.99985 0.49968C7.99985 0.367092 7.94718 0.239934 7.85343 0.14618C7.75967 0.0524264 7.63251 -0.000244141 7.49992 -0.000244141C7.36734 -0.000244141 7.24018 0.0524264 7.14642 0.14618L3.99992 3.29268L0.853425 0.14618C0.807002 0.0997581 0.751891 0.062934 0.691237 0.0378104C0.630584 0.0126869 0.565576 -0.000244141 0.499925 -0.000244141C0.434274 -0.000244141 0.369265 0.0126869 0.308612 0.0378104C0.247958 0.062934 0.192847 0.0997581 0.146425 0.14618C0.0526705 0.239934 0 0.367092 0 0.49968C0 0.632269 0.0526705 0.759426 0.146425 0.85318L3.29292 3.99968L0.146425 7.14618C0.0526705 7.23993 0 7.36709 0 7.49968C0 7.63227 0.0526705 7.75943 0.146425 7.85318C0.240179 7.94693 0.367336 7.99961 0.499925 7.99961C0.632513 7.99961 0.75967 7.94693 0.853425 7.85318L3.99992 4.70668L7.14642 7.85318C7.19275 7.89977 7.24783 7.93675 7.3085 7.96198C7.36916 7.98721 7.43422 8.0002 7.49992 8.0002C7.56563 8.0002 7.63068 7.98721 7.69135 7.96198C7.75202 7.93675 7.8071 7.89977 7.85343 7.85318C7.8999 7.80679 7.93677 7.75168 7.96192 7.69103C7.98708 7.63037 8.00002 7.56535 8.00002 7.49968C8.00002 7.43401 7.98708 7.36899 7.96192 7.30833C7.93677 7.24768 7.8999 7.19257 7.85343 7.14618L4.70692 3.99968Z" fill="#D80000"/>
</svg>
