<svg width="9" height="14" viewBox="0 0 9 14" fill="none" xmlns="http://www.w3.org/2000/svg">
<path d="M5 11.8896C5 12.9946 3.88 13.8896 2.5 13.8896C1.12 13.8896 0 12.9946 0 11.8896C0 10.7846 1.12 9.88965 2.5 9.88965C3.88 9.88965 5 10.7846 5 11.8896Z" fill="#585858"/>
<path fill-rule="evenodd" clip-rule="evenodd" d="M5 1.88965V11.8896H4V1.88965H5Z" fill="#585858"/>
<path d="M4 1.70975C4.00014 1.47866 4.08031 1.25474 4.22689 1.07608C4.37346 0.897423 4.57739 0.775042 4.804 0.729748L7.804 0.129748C7.94902 0.100761 8.09867 0.104302 8.24216 0.140115C8.38565 0.175928 8.51941 0.243122 8.6338 0.336856C8.74819 0.430589 8.84037 0.548529 8.9037 0.682178C8.96702 0.815826 8.99991 0.961857 9 1.10975V2.88975L4 3.88975V1.70975Z" fill="#585858"/>
</svg>
